<svg aria-hidden="true" style="position:absolute;width:0;height:0;overflow:hidden" xmlns="http://www.w3.org/2000/svg">
  <defs>
    <symbol id="icon-facebook" viewBox="0 0 32 32">
      <path d="M8.434 17.043h3.508v14.441c0 .285.231.516.516.516h5.947a.516.516 0 0 0 .516-.516V17.111h4.032a.517.517 0 0 0 .513-.457l.612-5.316a.517.517 0 0 0-.512-.575h-4.645V7.43c0-1.005.541-1.514 1.608-1.514h3.037a.516.516 0 0 0 .516-.516V.52a.516.516 0 0 0-.516-.516h-4.185C19.351.003 19.286 0 19.189 0c-.726 0-3.25.143-5.244 1.977-2.209 2.033-1.902 4.467-1.829 4.889v3.897H8.434a.516.516 0 0 0-.516.516v5.248c0 .285.231.516.516.516z"/>
    </symbol>
    <symbol id="icon-github" viewBox="0 0 32 32">
      <path d="M15.938.438C7.137.438 0 7.574 0 16.376 0 23.418 4.567 29.392 10.899 31.5c.796.148 1.089-.346 1.089-.767 0-.38-.015-1.636-.022-2.967-4.434.964-5.37-1.881-5.37-1.881-.725-1.842-1.77-2.332-1.77-2.332-1.446-.989.109-.969.109-.969 1.601.113 2.443 1.642 2.443 1.642 1.421 2.437 3.728 1.732 4.638 1.325.143-1.03.556-1.733 1.012-2.131-3.54-.403-7.261-1.77-7.261-7.877 0-1.74.623-3.162 1.642-4.278-.165-.402-.711-2.023.154-4.218 0 0 1.338-.428 4.384 1.634a15.278 15.278 0 0 1 3.989-.536 15.32 15.32 0 0 1 3.993.536c3.042-2.062 4.379-1.634 4.379-1.634.867 2.195.322 3.816.156 4.218 1.022 1.116 1.64 2.538 1.64 4.278 0 6.122-3.729 7.47-7.277 7.864.572.495 1.081 1.465 1.081 2.951 0 2.133-.018 3.849-.018 4.374 0 .424.287.921 1.095.765 6.329-2.11 10.89-8.082 10.89-15.122 0-8.803-7.136-15.938-15.938-15.938z"/>
      <path d="M5.969 23.142c-.035.079-.16.103-.273.049-.116-.052-.181-.16-.143-.239.034-.081.159-.104.274-.049.116.052.182.161.142.24zm.784.699c-.076.07-.225.038-.325-.074-.104-.111-.124-.26-.047-.331.078-.07.223-.038.327.074.104.112.125.26.045.331zm.538.895c-.098.068-.258.004-.356-.137-.098-.142-.098-.312.002-.38s.256-.007.356.134c.098.144.098.314-.002.384zm.91 1.037c-.087.096-.273.07-.41-.061-.139-.128-.178-.311-.09-.407s.276-.069.413.061c.138.128.181.312.088.407zm1.175.35c-.038.125-.218.181-.398.128-.18-.055-.298-.201-.262-.327.037-.126.217-.185.399-.128.18.054.298.2.261.326zm1.338.148c.005.131-.149.241-.338.243-.191.004-.345-.102-.347-.232 0-.133.15-.241.34-.244s.345.102.345.233zm1.314-.05c.023.128-.109.26-.297.295-.185.034-.356-.045-.38-.172-.023-.131.111-.263.296-.297.188-.033.357.044.381.175z"/>
    </symbol>
    <symbol id="icon-google" viewBox="0 0 32 32">
      <path d="M31.238 13.906h-2.011v-2.011a.762.762 0 0 0-.762-.762h-2.714a.762.762 0 0 0-.762.762v2.011h-2.011a.762.762 0 0 0-.762.762v2.714c0 .421.341.762.762.762h2.011v2.011c0 .421.341.762.762.762h2.714a.762.762 0 0 0 .762-.762v-2.011h2.011a.762.762 0 0 0 .762-.762v-2.714a.762.762 0 0 0-.762-.762zM10.352 10.581c.923 0 1.811.249 2.568.72l.865.592c.301.206.707.17.966-.087l2.522-2.499a.765.765 0 0 0-.105-1.17l-1.466-1.005a.797.797 0 0 0-.094-.055l-1.42-.701-.057-.026a10.386 10.386 0 0 0-3.831-.728 10.271 10.271 0 0 0-7.22 2.937C1.113 10.482.018 13.098 0 15.924s1.04 5.457 2.982 7.407c1.927 1.935 4.661 3.045 7.501 3.045 2.81 0 5.446-1.091 7.232-2.993 1.415-1.507 2.284-3.519 2.512-5.82l.004-.066.026-2.067a.69.69 0 0 0-.009-.128l-.111-.706a.762.762 0 0 0-.753-.644h-8.805a.762.762 0 0 0-.762.762v3.046c0 .421.341.762.762.762h4.489c-.206.451-.53.926-.94 1.37-.894.967-2.227 1.521-3.658 1.521-1.461 0-2.86-.573-3.839-1.571-2.037-2.077-2.014-5.697.05-7.746a5.25 5.25 0 0 1 3.671-1.517z"/>
    </symbol>
    <symbol id="icon-instagram" viewBox="0 0 32 32">
      <path d="M31.969 9.408c-0.075-1.7-0.35-2.869-0.744-3.882-0.406-1.075-1.031-2.038-1.85-2.838-0.8-0.813-1.769-1.444-2.832-1.844-1.019-0.394-2.182-0.669-3.882-0.744-1.713-0.081-2.257-0.1-6.601-0.1s-4.888 0.019-6.595 0.094c-1.7 0.075-2.869 0.35-3.882 0.744-1.075 0.406-2.038 1.031-2.838 1.85-0.813 0.8-1.444 1.769-1.844 2.832-0.394 1.019-0.669 2.182-0.744 3.882-0.081 1.713-0.1 2.257-0.1 6.601s0.019 4.888 0.094 6.595c0.075 1.7 0.35 2.869 0.744 3.882 0.406 1.075 1.038 2.038 1.85 2.838 0.8 0.813 1.769 1.444 2.832 1.844 1.019 0.394 2.182 0.669 3.882 0.744 1.706 0.075 2.25 0.094 6.595 0.094s4.888-0.019 6.595-0.094c1.7-0.075 2.869-0.35 3.882-0.744 2.151-0.832 3.851-2.532 4.682-4.682 0.394-1.019 0.669-2.182 0.744-3.882 0.075-1.707 0.094-2.25 0.094-6.595s-0.006-4.888-0.081-6.595zM29.087 22.473c-0.069 1.563-0.331 2.407-0.55 2.969-0.538 1.394-1.644 2.501-3.038 3.038-0.563 0.219-1.413 0.481-2.969 0.55-1.688 0.075-2.194 0.094-6.464 0.094s-4.782-0.019-6.464-0.094c-1.563-0.069-2.407-0.331-2.969-0.55-0.694-0.256-1.325-0.663-1.838-1.194-0.531-0.519-0.938-1.144-1.194-1.838-0.219-0.563-0.481-1.413-0.55-2.969-0.075-1.688-0.094-2.194-0.094-6.464s0.019-4.782 0.094-6.464c0.069-1.563 0.331-2.407 0.55-2.969 0.256-0.694 0.663-1.325 1.2-1.838 0.519-0.531 1.144-0.938 1.838-1.194 0.563-0.219 1.413-0.481 2.969-0.55 1.688-0.075 2.194-0.094 6.464-0.094 4.276 0 4.782 0.019 6.464 0.094 1.563 0.069 2.407 0.331 2.969 0.55 0.694 0.256 1.325 0.662 1.838 1.194 0.531 0.519 0.938 1.144 1.194 1.838 0.219 0.563 0.481 1.413 0.55 2.969 0.075 1.688 0.094 2.194 0.094 6.464s-0.019 4.77-0.094 6.458z"></path>
      <path d="M16.059 7.783c-4.538 0-8.22 3.682-8.22 8.22s3.682 8.22 8.22 8.22c4.538 0 8.22-3.682 8.22-8.22s-3.682-8.22-8.22-8.22zM16.059 21.335c-2.944 0-5.332-2.388-5.332-5.332s2.388-5.332 5.332-5.332c2.944 0 5.332 2.388 5.332 5.332s-2.388 5.332-5.332 5.332z"></path>
      <path d="M26.524 7.458c0 1.060-0.859 1.919-1.919 1.919s-1.919-0.859-1.919-1.919c0-1.060 0.859-1.919 1.919-1.919s1.919 0.859 1.919 1.919z"></path>
    </symbol>
    <symbol id="icon-linkedin" viewBox="0 0 32 32">
      <path d="M7.449 10.295H1.025a.516.516 0 0 0-.516.516v20.638c0 .285.231.516.516.516h6.424a.516.516 0 0 0 .516-.516V10.811a.516.516 0 0 0-.516-.516zM4.239.035A4.242 4.242 0 0 0 0 4.269a4.242 4.242 0 0 0 4.239 4.236c2.336 0 4.236-1.9 4.236-4.236S6.575.035 4.239.035zM23.789 9.782c-2.58 0-4.487 1.109-5.644 2.369v-1.34a.516.516 0 0 0-.516-.516h-6.152a.516.516 0 0 0-.516.516v20.638c0 .285.231.516.516.516h6.41a.516.516 0 0 0 .516-.516V21.238c0-3.441.935-4.781 3.333-4.781 2.612 0 2.82 2.149 2.82 4.958v10.034c0 .285.231.516.516.516h6.412a.516.516 0 0 0 .516-.516v-11.32c0-5.116-.976-10.347-8.211-10.347z"/>
    </symbol>
  </defs>
</svg>
